<?xml version="1.0" encoding="UTF-8" standalone="no"?><!DOCTYPE svg PUBLIC "-//W3C//DTD SVG 1.1//EN" "http://www.w3.org/Graphics/SVG/1.1/DTD/svg11.dtd"><svg width="100%" height="100%" viewBox="0 0 4255 5799" version="1.1" xmlns="http://www.w3.org/2000/svg" xmlns:xlink="http://www.w3.org/1999/xlink" xml:space="preserve" xmlns:serif="http://www.serif.com/" style="fill-rule:evenodd;clip-rule:evenodd;stroke-linejoin:round;stroke-miterlimit:2;"><path d="M2085.7,159.388c-1.5,0.583 -2.25,1.681 -2.25,3.292l-0.583,545.083c-0,1.472 0.403,2.82 1.208,4.042c5.806,8.889 11.403,16.041 16.792,21.458c40.639,40.611 76.861,78.056 108.667,112.333c10.541,11.375 12.583,23.417 12.416,40.084c-2.194,248.028 -1.708,496.028 1.459,744c0.125,9.583 4.583,30.916 -2.959,41.375c-13.5,18.708 -45.083,18.541 -56.291,-2.334c-2.834,-5.305 -4.223,-13.555 -4.167,-24.75c1.417,-247.75 1.639,-495.5 0.667,-743.25c-0.028,-8.083 -1.667,-14.791 -4.917,-20.125c-3.778,-6.138 -8.82,-12.611 -15.125,-19.416c-35.445,-38.167 -71.472,-75.806 -108.083,-112.917c-6.584,-6.708 -10.625,-19.875 -10.625,-30.417c-0.278,-139.638 -0.264,-279.263 0.041,-418.875c0.111,-44.027 -0.403,-87.93 -1.541,-131.708c-0.109,-3.738 -1.544,-7.303 -4.042,-10.042c-12.458,-13.5 -25.208,-29.166 -31.25,-46.416c-14.028,-40.084 -3.597,-72.431 31.292,-97.042c40.541,-28.625 102.541,-10.708 119.625,36.25c16.958,46.583 -6.375,92.458 -50.334,109.375Zm-35.511,-49.594c14.888,5.985 32.317,-1.969 38.609,-17.621c6.292,-15.651 -0.782,-33.456 -15.67,-39.441c-0,0 -0,0 -0,0c-14.888,-5.985 -32.317,1.97 -38.609,17.621c-6.291,15.652 0.782,33.456 15.67,39.441c0,-0 0,-0 0,-0Z" style="fill:#fff;fill-rule:nonzero;"/><path d="M1764.16,233.263c10.361,-3.111 20.888,-0.958 31.583,6.458c5.028,3.445 7.583,7.57 7.667,12.375c1.833,101.028 2.75,202.07 2.75,303.125c0.055,364.473 -0.362,728.945 -1.25,1093.42c-0.028,10.667 -1.653,18.181 -4.875,22.542c-11.417,15.458 -39.584,11.208 -50.417,-3.125c-3.528,-4.639 -5.278,-11.556 -5.25,-20.75c1.611,-460.75 1.639,-921.5 0.083,-1382.25c-0.041,-16.792 3.334,-26.917 19.709,-31.792Z" style="fill:#fff;fill-rule:nonzero;"/><path d="M2165.7,295.263c10.528,-17.305 25,-20.875 43.417,-10.708c6.389,3.528 9.625,9.028 9.708,16.5c1.222,121.083 2.236,242.166 3.042,363.25c0.208,31.875 -31.167,34.166 -53.208,23.916c-11.125,-5.166 -7.25,-20.208 -7.292,-29.875c-0.667,-118.194 -0.236,-236.388 1.292,-354.583c0.055,-2.417 1.069,-5.25 3.041,-8.5Z" style="fill:#fff;fill-rule:nonzero;"/><path d="M1945.87,636.471c2.875,293.084 -3.708,669.875 -0.375,1006.79c0.139,12.778 -1.208,21.903 -4.042,27.375c-9.541,18.417 -40.291,18.958 -51.75,1.5c-3.611,-5.5 -5.389,-13.75 -5.333,-24.75c2.472,-415.139 3,-830.278 1.583,-1245.42c-0.055,-13.055 0.959,-21.847 3.042,-26.375c8.75,-18.958 40.708,-17.875 51.125,-0.666c2.861,4.694 4.278,12.666 4.25,23.916c-0.056,52.639 0.444,131.848 1.5,237.625Z" style="fill:#fff;fill-rule:nonzero;"/><path d="M2529.41,878.596c5.333,-5.208 8.291,-9.708 8.25,-17.125c-1.584,-178.583 -1.57,-332.75 0.041,-462.5c0.417,-32.291 58.125,-32.875 58.5,-4.166c2.722,215.666 3.195,376.083 1.417,481.25c-0.195,10.833 -5.528,21.444 -16,31.833c-31.528,31.222 -62.528,61.5 -93,90.833c-3.062,2.928 -4.807,6.99 -4.833,11.25c-1.028,130.389 -1.237,261.348 -0.625,392.875c0.027,7.917 -1.556,13.931 -4.75,18.042c-4,5.083 -9.237,8.708 -15.709,10.875c-1.312,0.456 -2.756,0.396 -4.041,-0.167c-10.195,-4.555 -17.306,-7.458 -21.334,-8.708c-8.541,-2.625 -10.291,-6.25 -10.416,-15.208c-1.584,-136.25 -2.473,-272.486 -2.667,-408.709c-0,-14.375 9.208,-25.666 23.875,-40.208c27,-26.805 54.097,-53.528 81.292,-80.167Z" style="fill:#fff;fill-rule:nonzero;"/><path d="M2348.79,1673.1c-10.334,9.334 -24.417,13.167 -37.5,6.959c-21.209,-10.125 -16.959,-25.125 -17,-45c-0.5,-537.695 0.222,-938.097 2.166,-1201.21c0.209,-28.708 40.709,-39.875 54.959,-14.666c2.416,4.305 3.611,10.541 3.583,18.708c-1.25,408.875 -2.458,817.833 -1.083,1226.71c-0,2.584 -1.709,5.417 -5.125,8.5Z" style="fill:#fff;fill-rule:nonzero;"/><path d="M1562.08,579.638c-61.791,-61.75 7.459,-174.417 86.875,-134.375c47.667,24.042 55,90.75 27.334,132.958c-0.625,0.975 -1.527,1.732 -2.584,2.167c-8.875,3.75 -11.291,6.917 -11.291,16.958c0.472,355.417 0.763,710.82 0.875,1066.21c-0,6.916 -6.542,10.75 -13.084,14.75c-13.916,8.5 -27.333,7.139 -40.25,-4.084c-7,-6.083 -6.833,-13.541 -6.833,-22.5c-0.195,-247.777 0.055,-495.569 0.75,-743.375c0.25,-100.083 -2.458,-200.208 -3.333,-300.625c-0.05,-4.113 -2.403,-7.869 -6.084,-9.708c-11.208,-5.583 -23.625,-9.625 -32.375,-18.375Zm54.331,-27.909c0,-0 0,-0 0,-0c15.213,-1.304 26.492,-16.845 24.984,-34.427c0,0 0,0 0,0c-1.507,-17.581 -15.266,-30.976 -30.479,-29.671c0,-0 0,-0 -0,-0c-15.213,1.304 -26.491,16.845 -24.984,34.426c-0,0 -0,0 -0,0c1.507,17.582 15.266,30.976 30.479,29.672Z" style="fill:#fff;fill-rule:nonzero;"/><path d="M2868.83,1055.35c16.417,1.056 32.778,0.875 49.084,-0.541c9.875,-0.834 21.958,-1.125 31.708,-4.625c3.098,-1.128 5.182,-4.078 5.208,-7.375c0.361,-130.917 -0.18,-261.847 -1.625,-392.792c-0.041,-4.958 -1.25,-7.583 -5.208,-10.917c-22.625,-18.958 -39.292,-45.125 -39.042,-75.208c0.417,-44.542 42.625,-82.833 88,-74.917c32.375,5.667 55.959,29.459 64.084,61.25c8.916,35 -14.875,73.917 -45.625,89.459c-1.049,0.533 -1.711,1.615 -1.709,2.791c-0.528,124.695 -0.361,249.084 0.5,373.167c0.292,42.792 -2.583,75.208 -42.25,91.958c-9.916,4.195 -25.041,6.362 -45.375,6.5c-46.778,0.362 -89.069,-0.111 -126.875,-1.416c-19.25,-0.667 -41.666,28.041 -54.375,41.125c-15.625,16.041 -25.375,22.416 -46.666,24.166c-33.417,2.709 -30.167,-36.5 -13.542,-51.083c34.861,-30.583 70.667,-60 107.417,-88.25c4.944,-3.778 9.25,-8.125 12.916,-13.042c0.861,-1.166 1.292,-2.486 1.292,-3.958c0.194,-95.75 0.347,-191.5 0.458,-287.25c0,-8.375 4.209,-16.083 11.334,-21.042c15.388,-10.75 30.222,-8.902 44.5,5.542c2.694,2.722 4.055,8.236 4.083,16.542c0.055,105.75 -0.181,211.514 -0.708,317.291c-0,1.639 0.805,2.514 2.416,2.625Zm111.588,-460.555c13.887,2.026 27.213,-9.316 29.519,-25.126c0,-0 0,-0.001 0,-0.001c2.307,-15.81 -7.223,-30.487 -21.111,-32.513c0,0 0,0 0,0c-13.887,-2.025 -27.213,9.317 -29.519,25.127c-0,0 -0,0 -0,0.001c-2.307,15.81 7.223,30.486 21.111,32.512c-0,0 -0,0 -0,0Z" style="fill:#fff;fill-rule:nonzero;"/><path d="M2673.29,710.471c-0.125,-22.416 15.166,-29.083 34.708,-29.166c15.833,-0.111 23.708,7.861 23.625,23.916c-0.445,82.639 -0.764,165.278 -0.958,247.917c-0.084,26.667 -31.042,33.583 -49.917,20.167c-9.167,-6.584 -8,-13.584 -7.875,-26.042c0.667,-78.917 0.805,-157.847 0.417,-236.792Z" style="fill:#fff;fill-rule:nonzero;"/><path d="M3228.62,938.805c-48.417,-14.417 -83.208,-42.625 -95.25,-91.959c-10.292,-42.208 1.125,-77.625 32.042,-107.25c70.375,-67.333 169.25,-39.583 200.291,50.875c19.209,56 -21.583,114.25 -67.75,141.459c-3.368,1.984 -5.423,5.632 -5.375,9.541c1.111,70.556 1.931,141.112 2.459,211.667c0.472,68.861 0.138,117.695 -1,146.5c-0.667,15.792 0.916,23.875 -11.375,36.458c-9.445,9.695 -31.695,33.25 -66.75,70.667c-10.25,10.958 -23.584,22.583 -41.167,22.583c-72.917,0.056 -145.833,0.362 -218.75,0.917c-17.375,0.125 -46.708,30.083 -58.75,42.292c-47.583,48.208 -97.292,94.25 -146.667,140.625c-18.541,17.416 -42.666,46.708 -69.083,66.041c-1.139,0.834 -2.417,1.237 -3.833,1.209l-64.042,-1.125c-2.773,-0.055 -5.024,-2.351 -5.024,-5.124c-0,-1.06 0.329,-2.094 0.941,-2.96c5.111,-7.111 10.722,-13.638 16.833,-19.583c80.167,-78.194 161.028,-155.667 242.583,-232.417c15.25,-14.361 30.778,-28.43 46.584,-42.208c5.625,-4.958 14.666,-7.583 21.958,-7.75c75.944,-2.028 151.903,-2.875 227.875,-2.542c3.805,0.028 7.083,-1.25 9.833,-3.833c23.209,-21.667 60.084,-51.542 59.75,-73.375c-1.583,-105.861 -2.208,-211.722 -1.875,-317.583c0,-7.056 -0.653,-17.084 -1.958,-30.084c-0.13,-1.427 -1.124,-2.637 -2.5,-3.041Zm-32.167,-87.667c23.5,34.792 67.75,46.792 98.125,11.208c25.667,-30.041 16.709,-73.291 -16.125,-92.791c-49.791,-29.542 -117.208,29.5 -82,81.583Z" style="fill:#fff;fill-rule:nonzero;"/><path d="M902.036,1136.85c27.138,1.195 54.305,1.737 81.5,1.625c25.875,-0.125 55.583,-6.708 55.166,-39.375c-0.972,-76.527 -0.75,-153.055 0.667,-229.583c0.444,-24.555 2.75,-43.583 6.917,-57.083c18.833,-61.292 71.958,-105 136.333,-109.334c17.875,-1.208 49.292,-1.916 73.583,-1.125c1.448,0.051 2.745,0.927 3.334,2.25c6.458,14.667 1.708,41.959 -2.209,57.125c-0.546,2.062 -2.404,3.506 -4.5,3.5l-56.5,0c-16.694,0 -29.555,1.709 -38.583,5.125c-25.583,9.667 -48.083,29.709 -57.292,55.875c-2.944,8.417 -4.444,21.931 -4.5,40.542c-0.194,79.945 -0.625,159.903 -1.291,239.875c-0.112,14.556 -2.75,25.861 -7.917,33.917c-19.417,30.333 -54.75,57.75 -92.208,57.916c-64.306,0.25 -106.889,-0.291 -127.75,-1.625c-17.945,-1.166 -26.82,-11.069 -26.625,-29.708c0.388,-32.889 0.569,-65.736 0.541,-98.542c-0.041,-17 2.375,-28.5 18.292,-34.25c13.875,-4.958 29.208,3.417 36.042,15.375c2.888,5.084 4.194,12.681 3.916,22.792c-0.528,20.667 -0.444,41.292 0.25,61.875c0.056,1.833 1,2.778 2.834,2.833Z" style="fill:#fff;fill-rule:nonzero;"/><path d="M1499.74,704.471c27.75,0.167 30.417,32.959 17.917,50.959c-6.125,8.875 -23.667,8 -34.584,7.875c-43.75,-0.417 -87.514,-0.875 -131.291,-1.375c-8.334,-0.084 -12.875,-3.75 -13.625,-11c-1.5,-14 -1.556,-27.264 -0.167,-39.792c0.421,-3.899 3.724,-6.895 7.625,-6.917c52.444,-0.138 103.819,-0.055 154.125,0.25Z" style="fill:#fff;fill-rule:nonzero;"/><path d="M1464.12,906.013c-0,-3.305 -1.667,-4.944 -5,-4.917l-164.875,1.875c-1.695,0 -2.556,0.848 -2.583,2.542l-0.75,185.083c0.009,3.697 2.877,6.803 6.541,7.084c16.125,1.25 36.25,-2.209 50.334,4.5c13.694,6.555 23.013,16.639 27.958,30.25c2.583,7.139 3.903,20.028 3.958,38.666c0.445,162.417 1.153,324.834 2.125,487.25c0.167,28.625 -45.166,32.709 -56.125,9.542c-1.75,-3.694 -2.611,-10.18 -2.583,-19.458c0.417,-161.611 0.055,-323 -1.083,-484.167c-0.023,-1.698 -1.427,-3.083 -3.125,-3.083c-15.917,-0.084 -31.292,-0.222 -46.125,-0.417c-23,-0.292 -35.459,-19.833 -35.959,-40.917c-2.25,-97.416 -2.639,-179.791 -1.166,-247.125c0.194,-8.527 3.638,-16.888 10.333,-25.083c0.861,-1.055 1.958,-1.653 3.292,-1.792c5.666,-0.541 12.083,-2.083 17.541,-2.041c74.111,0.75 148.222,1.111 222.334,1.083c6.416,0 11.666,1.556 15.75,4.667c9.333,7.125 16.375,15.833 16.5,28.541c2.083,258.778 3.263,517.57 3.541,776.375c0,6.834 -1.583,12.445 -4.75,16.834c-11.778,16.25 -26.903,17.208 -45.375,2.875c-5.528,-4.278 -8.305,-9.903 -8.333,-16.875c-1,-251.5 -1.792,-501.931 -2.375,-751.292Z" style="fill:#fff;fill-rule:nonzero;"/><path d="M2082.87,946.138c-0,-15.086 -12.248,-27.333 -27.333,-27.333l-6.584,-0c-15.085,-0 -27.333,12.247 -27.333,27.333l-0,707.583c-0,15.086 12.248,27.334 27.333,27.334l6.584,-0c15.085,-0 27.333,-12.248 27.333,-27.334l-0,-707.583Z" style="fill:#fff;"/><path d="M3380.37,1029.64c0.167,-17.958 -5.292,-50.083 5.417,-64.5c14.041,-19 43.25,-14.5 51.208,6.917c1.639,4.361 2.167,12.625 1.583,24.791c-0.916,18.209 1.459,38.834 1.542,54.209c0.139,32.639 0.25,65.278 0.333,97.916c0.042,14.292 -0.541,24.959 10.042,35.834c125.083,128.944 206.264,212.319 243.542,250.125c5.027,5.055 11.777,7.597 20.25,7.625c157.638,0.333 315.291,0.194 472.958,-0.417c31,-0.125 36.25,45.208 13.417,56.792c-4.75,2.416 -13.848,3.597 -27.292,3.541c-158.945,-0.527 -317.861,-0.305 -476.75,0.667c-10.792,0.083 -20.25,-4.875 -28.75,-12.708c-44.542,-41 -85.5,-85.834 -127.417,-129.417c-47.166,-49.042 -98.916,-97.917 -146.833,-148.625c-10,-10.583 -11.167,-26.375 -11.667,-39.417c-1.583,-42.194 -2.111,-89.972 -1.583,-143.333Z" style="fill:#fff;fill-rule:nonzero;"/><path d="M2821.45,1282.01c-19.833,-0.25 -36.208,10.292 -50.083,24.042c-17.556,17.389 -34.653,34.222 -51.292,50.5c-2.416,2.36 -3.884,5.519 -4.125,8.875c-1.722,21.611 -2.694,43.069 -2.916,64.375c-0.084,8.625 -3.584,15.708 -8.584,21.75c-43.666,52.708 -98.291,100.833 -148.666,148.583c-23.625,22.375 -44.875,45.833 -66.667,69.458c-3.889,4.195 -9.458,8.584 -16.708,13.167c-1.167,0.75 -2.445,1.083 -3.834,1c-12.611,-0.583 -24.389,-3.736 -35.333,-9.458c-17.667,-9.292 3.333,-37.042 11.25,-45.125c59.194,-60.278 119.43,-119.514 180.708,-177.709c7.834,-7.416 15.347,-15.18 22.542,-23.291c10.25,-11.5 7.125,-44.5 6.958,-59.792c-0.25,-22.542 5.25,-32.5 19.834,-47.667c36,-37.5 68.013,-66.68 96.041,-87.541c10.792,-8 28.667,-12.417 43.792,-12.417c65.611,0.028 131.222,0.056 196.833,0.083c6.056,0 12.514,-3.625 19.375,-10.875c21.056,-22.305 41.597,-44.361 61.625,-66.166c1.834,-2.028 2.764,-4.403 2.792,-7.125c0.139,-42.167 -0.167,-84.25 -0.917,-126.25c-0.278,-16.556 5.834,-26.972 18.334,-31.25c22.083,-7.584 41.791,7.541 41.666,30.75c-0.194,44.639 -0.236,89.236 -0.125,133.791c0.042,15.375 -3.25,26 -14.583,37.542c-28.417,28.945 -57.445,57.222 -87.083,84.833c-9.042,8.417 -17.875,13.542 -31.042,13.959c-66.583,2.028 -133.181,2.68 -199.792,1.958Z" style="fill:#fff;fill-rule:nonzero;"/><path d="M2568.12,1041.51c7,-20.958 26.333,-16.75 43.083,-13.542c5.528,1.028 8.57,3.917 9.125,8.667c1.945,16.278 2.431,31.458 1.459,45.542c-0.399,5.871 -5.34,10.488 -11.225,10.488c-0.272,-0 -0.545,-0.01 -0.817,-0.03c-8.5,-0.667 -17.264,-0.792 -26.292,-0.375c-18.083,0.792 -16.708,-6.208 -18.541,-20.208c-1.306,-10.028 -0.237,-20.209 3.208,-30.542Z" style="fill:#fff;fill-rule:nonzero;"/><path d="M3577.2,1133.1c-9.541,13.459 -26.125,10.209 -39.916,8.667c-9.667,-1.083 -14.57,-6.667 -14.709,-16.75c-0.416,-35.444 -0.472,-58.361 -0.166,-68.75c0.194,-7.028 3.263,-12.597 9.208,-16.708c15.778,-10.972 30.639,-10.014 44.583,2.875c3.167,2.944 4.681,8.25 4.542,15.916c-0.361,23.195 -0.847,46.014 -1.458,68.459c-0.056,2.305 -0.75,4.403 -2.084,6.291Z" style="fill:#fff;fill-rule:nonzero;"/><path d="M728.952,1277.22c0.023,1.104 0.919,2 2,2c136.084,0.278 271.861,0.625 407.334,1.042c34.625,0.125 78.25,52.375 93.375,82.708c4.291,8.584 6,26.542 6.208,38.459c1.5,87.139 2.055,174.278 1.667,261.416c-0.028,1.389 -0.431,2.667 -1.209,3.834c-13.611,19.444 -30.639,21.458 -51.083,6.041c-5.25,-3.944 -7.847,-9.777 -7.792,-17.5c0.611,-81.111 0.82,-162.236 0.625,-243.375c-0.083,-27.416 -18.583,-55.208 -41.958,-67c-10.958,-5.541 -29.833,-4.291 -43.625,-4.25c-134.889,0.25 -269.278,0.237 -403.167,-0.041c-11.077,-0.023 -20.185,-9.131 -20.208,-20.209c-0.167,-68.777 -0.07,-138.055 0.292,-207.833c0.055,-8 0.75,-15.944 2.083,-23.833c0.25,-1.361 0.93,-2.459 2.042,-3.292c13.638,-10.417 27.875,-11.403 42.708,-2.958c4.167,2.389 6.569,5.833 7.208,10.333c8.5,60.917 2.709,123.25 3.5,184.458Z" style="fill:#fff;fill-rule:nonzero;"/><path d="M3737.29,1227.97c-28.778,-0.027 -51.709,0.445 -68.792,1.417c-34.333,1.917 -42.833,-29.583 -25.5,-53.958c6.833,-9.542 14.542,-12.167 26.833,-12.292c33.25,-0.389 66.472,-0.93 99.667,-1.625c8.917,-0.208 14.542,-0.708 23.125,-4.75c50.305,-23.722 94.917,-19.25 133.833,13.417c58,48.791 51.834,135.833 -15.458,173.083c-68.875,38.167 -153.75,3 -169.042,-76.125c-1.916,-10.042 -0.916,-24.5 -1.833,-36.542c-0.139,-1.75 -1.083,-2.625 -2.833,-2.625Zm160.957,53.657c15.388,-22.899 7.567,-55.506 -17.324,-72.232c-0,-0 -0,-0 -0,-0.001c-24.892,-16.726 -58.036,-11.646 -73.424,11.253c-0,0 -0,0 -0,0c-15.388,22.899 -7.567,55.506 17.324,72.233c0,-0 0,-0 0,-0c24.892,16.726 58.036,11.647 73.424,-11.253c0,0 0,0 0,0Z" style="fill:#fff;fill-rule:nonzero;"/><path d="M512.421,1321.24c-0,-0 -0,-0 -0,-0c-33.319,33.787 -88.955,33.763 -123.247,-0.053c0,-0 0,-0 0,-0c-34.292,-33.817 -35.092,-89.446 -1.774,-123.234c0.001,0 0.001,0 0.001,0c33.319,-33.787 88.954,-33.763 123.246,0.053c-0,0 -0,0 0,0c34.292,33.817 35.093,89.446 1.774,123.234Zm-27.441,-52.524c6.036,-17.334 -4.113,-36.861 -22.483,-43.258c-18.369,-6.397 -38.452,2.602 -44.489,19.936c-6.036,17.333 4.113,36.861 22.483,43.258c18.369,6.397 38.452,-2.602 44.489,-19.936Z" style="fill:#fff;fill-rule:nonzero;"/><path d="M3406.27,1496.18c-39.32,2.611 -74,-30.241 -76.825,-72.777c-0,-0 -0,-0 -0,-0c-2.826,-42.536 27.205,-79.687 66.525,-82.298c-0,-0 -0,-0 -0,-0c39.32,-2.612 74,30.241 76.825,72.776c0,0 0,0 0,0c2.826,42.536 -27.205,79.687 -66.525,82.299c-0,-0 -0,-0 -0,-0Zm1.02,-52.067c13.467,-2.715 22.157,-16.805 19.252,-31.212c-2.905,-14.407 -16.376,-24.029 -29.842,-21.313c-13.467,2.715 -22.157,16.805 -19.253,31.212c2.906,14.407 16.377,24.029 29.843,21.313Z" style="fill:#fff;fill-rule:nonzero;"/><path d="M1027.04,1503.31c-157.167,-0.75 -315.292,-2.667 -473.125,-0.459c-94.112,1.306 -188.237,1.473 -282.375,0.5c-17.125,-0.166 -20.167,6.417 -31.459,17.167c-7.416,7.056 -17.68,12.403 -30.791,16.042c-11.306,3.139 -22.514,3.278 -33.625,0.416c-103.042,-26.583 -77.625,-168.333 23.041,-164.291c37.209,1.5 58.417,26.541 71.417,58.833c3.583,8.833 6.958,10 16.083,10c247.667,0.445 495.32,0.597 742.959,0.458c5.375,0 8.291,1.167 12.916,3.25c36.695,16.528 54.806,45.223 54.334,86.084c-0.5,42.333 -0.778,84.68 -0.834,127.041c0,6.445 -1.93,11.431 -5.791,14.959c-13.028,11.805 -27.542,12.903 -43.542,3.291c-8.792,-5.291 -10.375,-7.75 -10.208,-18.583c0.833,-46.944 0.902,-95.472 0.208,-145.583c-0.068,-5.012 -4.197,-9.103 -9.208,-9.125Zm-828.617,-16.31c16.795,-2.36 28.618,-18.514 26.191,-35.785c-2.428,-17.27 -18.245,-29.539 -35.041,-27.179c-16.795,2.36 -28.618,18.514 -26.191,35.785c2.427,17.271 18.245,29.54 35.041,27.179Z" style="fill:#fff;fill-rule:nonzero;"/><path d="M2792.12,1668.72c24.75,-20.138 46.861,-39.791 66.333,-58.958c4.75,-4.667 12.125,-6.583 19.417,-6.667c68.75,-0.861 137.5,-1.263 206.25,-1.208c23.625,0.042 39.375,-3.5 42.583,23c1.639,13.528 0.486,26.153 -3.458,37.875c-0.445,1.389 -1.306,2.445 -2.583,3.167c-4.417,2.472 -9.653,3.708 -15.709,3.708c-73.611,-0.111 -147.222,0.333 -220.833,1.333c-31.528,0.417 -61.639,1.125 -90.333,2.125c-4.917,0.167 -5.473,-1.291 -1.667,-4.375Z" style="fill:#fff;fill-rule:nonzero;"/><path d="M76.494,1667.1c-2.463,-0.964 -4.46,-2.812 -5.583,-5.166c-8.5,-17.834 -8.375,-57.792 20.625,-57.792c280.166,0.028 560.333,-0.278 840.5,-0.917c23.666,-0.083 21.666,25.792 21.583,44.667c-0.125,19.042 -7.917,21.25 -25.292,21.208c-280.722,-0.638 -561.43,-0.694 -842.125,-0.166c-3.25,-0 -6.486,-0.611 -9.708,-1.834Z" style="fill:#fff;fill-rule:nonzero;"/><path d="M4085.7,1668.56c-287.139,0.083 -574.305,0.125 -861.5,0.125c-1.416,-0 -2.694,-0.431 -3.833,-1.292c-17.458,-13.125 -14.125,-41.125 -4.833,-57c2.583,-4.458 8.833,-6.292 14.25,-6.292c320.555,-0.555 641.097,-0.652 961.625,-0.291c23.958,0.041 38.208,62.958 4.166,63.666c-36.611,0.723 -73.236,1.084 -109.875,1.084Z" style="fill:#fff;fill-rule:nonzero;"/><path d="M1215.2,2379.35c0.207,-0.003 0.414,-0.03 0.615,-0.08c1.442,-0.357 2.34,-1.819 1.988,-3.239c-0.051,-0.207 -0.128,-0.408 -0.228,-0.597l-98.25,-190.875c-1.097,-2.138 -3.306,-3.488 -5.709,-3.488c-2.369,-0 -4.553,1.312 -5.666,3.404c-8.583,16.209 -16.458,33.667 -25.833,49.334c-21.528,36.055 -46.542,81.833 -75.042,137.333c-66.278,129.167 -133.041,258.722 -200.291,388.667c-0.741,1.407 -2.188,2.291 -3.75,2.291l-196.084,0.25c-2.643,-0.011 -4.812,-2.189 -4.812,-4.833c-0,-1.053 0.344,-2.077 0.979,-2.917c9.25,-12.055 17.194,-24.444 23.833,-37.166c30.25,-58.042 61.667,-115.167 90.667,-173.917c41.542,-84.083 82.708,-161.667 131.625,-258.417c8.667,-17.083 22.458,-40.333 32.708,-60.458c70.417,-138.194 142.042,-275.764 214.875,-412.708c3.361,-6.334 6.986,-11.736 10.875,-16.209c1.464,-1.697 3.597,-2.674 5.838,-2.674c2.864,-0 5.501,1.596 6.829,4.133c101.361,193.583 202.417,387.528 303.167,581.833c19.555,37.778 38.875,75.681 57.958,113.708c43.75,87.167 89.708,172.5 133.083,261.25c2.834,5.806 1.028,8.695 -5.416,8.667l-190.792,-0.417c-3.472,-0.027 -5.931,-1.597 -7.375,-4.708c-10.306,-22.055 -20.945,-44.375 -31.917,-66.958c-22.083,-45.375 -50.166,-93.25 -74.625,-140.292c-0.472,-0.944 -1.222,-1.417 -2.25,-1.417l-323.041,-1.25c-4.334,0 -5.57,-1.972 -3.709,-5.916c40.917,-85.445 86.139,-168.556 135.667,-249.334c0.809,-1.325 2.253,-2.136 3.806,-2.136c1.621,0 3.119,0.884 3.902,2.303l47.667,85.5c0.619,1.108 1.786,1.795 3.042,1.792l45.666,-0.459Z" style="fill:#fff;fill-rule:nonzero;"/><path d="M2182.79,1812.35c86.625,21.834 166.5,66.584 233.416,125.917c1.139,1 1.264,2.097 0.375,3.292c-12.055,16.5 -20.153,26.944 -24.291,31.333c-32.195,34.222 -63.028,69.972 -92.5,107.25c-1.383,1.736 -3.485,2.749 -5.704,2.749c-1.802,-0 -3.541,-0.668 -4.88,-1.874c-77.083,-69.625 -164.083,-106.417 -269.708,-93.333c-28.139,3.5 -54.958,10.778 -80.458,21.833c-87.292,37.917 -153.959,122.667 -170.292,216.375c-15.5,88.917 3.861,170.264 58.083,244.042c48.889,66.5 115.861,104.444 200.917,113.833c16.333,1.806 40.333,1.292 72,-1.542c75.778,-6.722 137.639,-39 185.583,-96.833c4.306,-5.194 8.667,-5.236 13.084,-0.125c14.541,16.917 28.75,37.625 41.416,52.417c24.722,28.833 50.959,56.222 78.709,82.166c1.111,1.028 1.166,2.098 0.166,3.209c-31.472,35.055 -67.958,63.125 -109.458,84.208c-121.945,61.889 -247.667,76.389 -377.167,43.5c-85.444,-21.694 -160.041,-66.778 -223.791,-135.25c-80.584,-86.555 -124,-189.653 -130.25,-309.292c-3.195,-60.944 5.055,-119.638 24.75,-176.083c64.333,-184.167 225.75,-320.667 422,-329.875c47.5,-2.208 105.25,-1.208 158,12.083Z" style="fill:#fff;fill-rule:nonzero;"/><path d="M3125.04,1830.81c138.75,56.583 248.25,168.583 290,312.875c23.625,81.833 28.291,168.625 8.208,252.125c-20.778,86.639 -61.583,162.694 -122.417,228.166c-89.333,96.125 -216.125,143.959 -349,143.417c-108.805,-0.444 -205.222,-34.528 -289.25,-102.25c-149.583,-120.5 -217.625,-302.375 -174.291,-492.167c11.444,-50.166 30.472,-96.458 57.083,-138.875c86.292,-137.583 223.625,-228.958 388.75,-233.208c67,-1.708 129.333,4.792 190.917,29.917Zm-13.417,708.083c147.208,-93 186.625,-301.792 74.792,-439.208c-33.306,-40.972 -72.403,-71.292 -117.292,-90.959c-146.167,-64.041 -311.875,6.75 -378.917,147.625c-43.111,90.639 -40.514,180.792 7.792,270.459c81.708,151.666 269.083,203.375 413.625,112.083Z" style="fill:#fff;fill-rule:nonzero;"/><path d="M577.786,2485.97c-13.042,149.459 -133.167,267.375 -282.459,279.375c-111.625,8.959 -214.375,-38.291 -290.166,-120.416c-7.417,-8 -6.625,-12.709 1,-19.792c38.583,-35.805 74.916,-73.194 109,-112.167c0.014,-0.016 0.028,-0.032 0.043,-0.048c2.971,-3.323 8.136,-3.625 11.441,-0.67c0.019,0.017 0.038,0.035 0.057,0.052c20.334,18.583 40.375,40.75 62.625,53.541c54.042,31.167 127,28.792 171.834,-18.041c24.833,-25.972 37.43,-57.528 37.791,-94.667c0.917,-96.444 1.222,-311.889 0.917,-646.333c-0.028,-1.389 0.667,-2.084 2.083,-2.084l174.834,0.167c2.331,0 4.25,1.919 4.25,4.25c0.111,220.667 -0.625,441.236 -2.209,661.708c-0.028,2.445 -0.375,7.487 -1.041,15.125Z" style="fill:#fff;fill-rule:nonzero;"/><path d="M4147.24,2275.51c-0.919,3.072 0.201,6.416 2.792,8.333c160.875,118.667 128.5,364.209 -51.792,445.959c-49.333,22.375 -94.958,32.041 -151.958,31.958c-140.028,-0.139 -280.542,-0.111 -421.542,0.083c-1.917,0.028 -2.875,-0.93 -2.875,-2.875l0.667,-950.166c-0,-1.516 1.253,-2.769 2.791,-2.792c128.889,-2.111 257.764,-2.375 386.625,-0.792c30.528,0.389 54.875,2.57 73.042,6.542c63.639,13.945 117.361,44.389 161.167,91.333c94.791,101.5 111.041,270.167 2.791,369.459c-0.639,0.555 -1.083,1.208 -1.333,1.958c-0.139,0.361 -0.264,0.695 -0.375,1Zm-442.833,-289.125l0.25,206.458c-0,0.008 -0,0.015 -0,0.022c0.012,2.286 1.884,4.157 4.146,4.145c0.007,0 0.014,0 0.02,0c72.361,-0.972 145.056,-1.111 218.084,-0.417c22.916,0.195 38.736,-0.819 47.458,-3.041c17.194,-4.361 31.139,-12.986 41.833,-25.875c29.084,-35.028 33.445,-74.611 13.084,-118.75c-14.473,-31.306 -36.737,-51.056 -66.792,-59.25c-10.528,-2.889 -37.82,-4.292 -81.875,-4.209c-58.611,0.084 -117.111,0.139 -175.5,0.167c-0.472,0 -0.708,0.25 -0.708,0.75Zm0.916,392.458l-0.333,201.167c-0,0.014 -0,0.028 -0,0.042c-0,2.263 1.862,4.125 4.125,4.125c-0,-0 -0,-0 -0,-0l250.25,0.416c60.721,0.098 110.766,-47.07 110.875,-104.5c-0,-0.005 -0,-0.01 -0,-0.015c0.1,-57.441 -49.793,-104.795 -110.525,-104.901c-0.006,-0 -0.011,-0 -0.017,-0l-250.25,-0.417c-2.247,0 -4.102,1.836 -4.125,4.083Z" style="fill:#fff;fill-rule:nonzero;"/><path d="M2808.45,3318.43c-0.181,-0.092 -0.381,-0.14 -0.583,-0.14c-0.699,0 -1.277,0.567 -1.292,1.265c-0.222,181.722 -0.43,363.403 -0.625,545.041c0,5.362 -0.569,10.042 -1.708,14.042c-0.417,1.389 -1.32,2.25 -2.708,2.583c-4.639,1.112 -8.362,1.667 -11.167,1.667c-49.306,0.222 -98.847,0.292 -148.625,0.208c-10.917,-0.027 -16.361,-5.5 -16.333,-16.416c1.138,-280.889 1.625,-562.139 1.458,-843.75c-0.028,-40.861 -0.375,-81.709 -1.042,-122.542c-0.166,-10.25 -3.166,-23.875 -2.5,-34.625c0.209,-3.478 3.129,-6.227 6.613,-6.227c1.795,-0 3.515,0.729 4.762,2.019c32.695,33.472 64.195,66.333 94.5,98.583c148.306,157.917 297.334,315.153 447.084,471.708c11.583,12.112 23.361,23.639 35.333,34.584c1.041,0.95 2.629,1.037 3.792,0.208c1,-0.75 1.5,-1.778 1.5,-3.083c0.305,-179.139 0.111,-357.861 -0.584,-536.167c0,-2.286 1.881,-4.167 4.167,-4.167l176.917,-0.5c1.142,0 2.083,0.922 2.083,2.042l0.292,985.833c-0.002,0.126 -0.016,0.25 -0.042,0.373c-0.214,1.006 -1.199,1.662 -2.183,1.453c-0.123,-0.027 -0.244,-0.066 -0.359,-0.117c-7.389,-3.361 -14.166,-8.167 -20.333,-14.417c-138.333,-141 -276.778,-281.889 -415.333,-422.667c-48.042,-48.791 -97.334,-102.75 -147.709,-152.791c-1.639,-1.639 -3.43,-2.972 -5.375,-4Z" style="fill:#fff;fill-rule:nonzero;"/><path d="M249.369,3703.14l465.833,-0.583c0.022,-0 0.044,-0 0.066,-0c2.446,0.012 4.448,2.054 4.435,4.523c-0,0.02 -0,0.04 -0.001,0.06c-1,53.556 -0.458,107.431 1.625,161.625c0.361,9.195 -3.708,13.778 -12.208,13.75c-209.333,-0.389 -419.486,-0.444 -630.458,-0.167c-8,0 -11.987,-4 -11.959,-12l1.667,-944.875c-0,-1.861 0.93,-2.805 2.792,-2.833l173.458,-0.75c1.444,0 2.167,0.722 2.167,2.167l0.083,776.625c-0,1.639 0.833,2.458 2.5,2.458Z" style="fill:#fff;fill-rule:nonzero;"/><path d="M1011.62,3702.85l515.542,-1.125c2.217,0 4.041,1.825 4.041,4.042l-0.416,172.708c-0,2.218 -1.825,4.042 -4.042,4.042l-696.708,0.708c-2.218,0 -4.042,-1.824 -4.042,-4.041l-0.167,-951.959c0,-2.217 1.825,-4.041 4.042,-4.041l698.167,-0.459c-0,0 -0,0 -0,0c2.217,0 4.041,1.825 4.041,4.042c0,0.014 0,0.028 0,0.042l-1.083,174.208c-0.023,2.202 -1.84,4 -4.042,4l-513.958,-0.042c-2.217,0 -4.042,1.825 -4.042,4.042l-0.416,209.583c-0,2.218 1.824,4.042 4.041,4.042l459.084,-0.417c-0,0 -0,0 -0,0c2.217,0 4.041,1.825 4.041,4.042c0,0.014 0,0.028 0,0.042l-1.75,174.333c-0.022,2.202 -1.84,4 -4.041,4l-456.584,-0.292c-2.201,0 -4.019,1.799 -4.041,4l-1.709,190.417c0,0.014 0,0.028 0,0.042c0,2.217 1.825,4.041 4.042,4.041c-0,0 -0,0 -0,0Z" style="fill:#fff;fill-rule:nonzero;"/><path d="M3705.74,3107.6l-0.5,209.792c-0,2.514 2.069,4.583 4.583,4.583l459.042,-0.166c1.667,-0 2.5,0.847 2.5,2.541l-1.542,174.667c-0.022,3.002 -2.517,5.459 -5.541,5.458l-455.709,-0.083c-1.325,0 -2.416,1.091 -2.416,2.417l-1.334,193.416c-0.028,1.195 0.57,1.792 1.792,1.792l507.708,-0.583c2.103,-0 3.834,1.73 3.834,3.833l-0.542,165.292c-0.028,8.194 -4.139,12.291 -12.333,12.291l-680.417,-0.75c-1.532,0 -2.792,-1.241 -2.792,-2.75l-0.041,-953.458c-0,-1.577 1.297,-2.875 2.875,-2.875l689.333,-0.25c1.76,0 3.208,1.448 3.208,3.208l0,176.209c0,1.783 -1.467,3.25 -3.25,3.25l-506.416,0.125c-1.362,-0 -2.042,0.68 -2.042,2.041Z" style="fill:#fff;fill-rule:nonzero;"/><path d="M1943.08,3873.06c-238,-55.709 -391.708,-306.584 -351.25,-544.792c20.542,-120.875 94.167,-237.042 189.459,-310.25c64.861,-49.861 138.055,-79.639 219.583,-89.333c103.458,-12.334 201.917,1.916 292.25,51.208c79.458,43.333 144,109.917 188.625,188.583c3.167,5.556 7.208,14.125 12.125,25.709c5.042,11.75 11.708,23.666 15.958,34.416c41.584,104.875 44.959,212.959 12.459,319.25c-25.375,82.959 -66.959,148.25 -129.625,210.667c-116.542,116.083 -292.084,151.458 -449.584,114.542Zm-137.791,-605.084c-57.209,106.125 -41.625,232.792 32.791,325.959c54.195,67.861 125.431,103.805 213.709,107.833c82.916,3.75 160.958,-23.375 218.875,-82.333c60.333,-61.459 91.625,-144.167 86.708,-231.375c-1.278,-23.056 -3.764,-42.722 -7.458,-59c-20.042,-87.959 -103.792,-175.959 -188.875,-204.917c-141.75,-48.25 -285.667,13.792 -355.75,143.833Z" style="fill:#fff;fill-rule:nonzero;"/><path d="M2224.79,4248.93c12.583,-0.125 25.291,-0.584 37.125,2.375c41.25,10.208 74.458,45.083 70.75,89.125c-5.084,60 -80.75,108.875 -134.792,73.958c-36.667,-23.708 -44.667,-63.958 -36.75,-104.917c2.139,-11.111 3.208,-19.75 3.208,-25.916c0.139,-85.861 0.125,-171.695 -0.041,-257.5c-0.084,-35.334 57.041,-36.375 57.125,4.166c0.111,71.584 0.138,143.389 0.083,215.417c-0,2.222 1.097,3.32 3.292,3.292Zm52.958,89.208c-0,-18.697 -15.386,-34.083 -34.083,-34.083c-18.698,-0 -34.084,15.386 -34.084,34.083c0,18.698 15.386,34.083 34.084,34.083c18.697,0 34.083,-15.385 34.083,-34.083Z" style="fill:#fff;fill-rule:nonzero;"/><path d="M3348.12,4069.97c0.382,-0.389 0.596,-0.913 0.596,-1.458c-0,-1.132 -0.923,-2.067 -2.054,-2.083c-34.028,-0.5 -67.389,-0.167 -100.084,1c-6.333,0.25 -17.333,9.333 -22.958,15.208c-24.5,25.5 -49.431,50.57 -74.792,75.208c-36.791,35.75 -78.583,81.417 -120.75,119.459c-13.555,12.222 -29.583,16.611 -48.083,13.166c-39.667,-7.416 -23.75,-47.375 -3.792,-64.25c3.389,-2.861 10.847,-6.652 22.375,-11.375c11.084,-4.527 20.361,-10.638 27.834,-18.333c40.055,-41.222 80.972,-82.319 122.75,-123.292c1.81,-1.758 2.691,-4.276 2.375,-6.791c-0.112,-0.945 -1.056,-1.403 -2.834,-1.375c-88.861,0.361 -177.778,0.291 -266.75,-0.209c-1.325,0 -2.416,1.091 -2.416,2.417c-0.25,101.695 0.319,203.583 1.708,305.667c0.083,5.375 -4.958,13.291 -9.292,17.958c-16.583,17.889 -32.889,36.014 -48.916,54.375c-6.834,7.833 -10.264,15.667 -10.292,23.5c-0.972,179.195 -1.292,358.389 -0.958,537.583c0.083,46.556 -0.598,74.292 -2.042,83.209c-13.583,83.083 -96.417,141.833 -179.542,115.25c-37.333,-11.945 -62.472,-35.361 -75.416,-70.25c-4.25,-11.472 -6.639,-27.07 -7.167,-46.792c-1.195,-45.5 -1.361,-94.528 -0.5,-147.083c0.125,-7.417 1.75,-12.417 9.208,-15.292c15.542,-6 49.042,-7.833 49.084,17.333c0.083,39.612 0.18,79.209 0.291,118.792c0.125,40.042 -2.208,65.292 33.209,82.708c44.041,21.625 96.416,-6.875 109.916,-50.416c2.778,-8.972 4.153,-31.361 4.125,-67.167c-0.139,-172.778 -0.041,-345.542 0.292,-518.292c0.042,-22.541 -3.417,-55.041 6.333,-75.333c11.125,-23.125 31.084,-41.958 49.084,-59.875c9.541,-9.458 12.333,-18.792 12.208,-31.458c-1.417,-159.056 -1.847,-263.556 -1.292,-313.5c0.195,-15.556 8.5,-23.389 24.917,-23.5c159.708,-0.959 319.542,-2.75 479.167,-1.959c136.722,0.695 263.472,0.264 380.25,-1.291c9.944,-0.139 15.041,4.583 15.291,14.166c0.417,16.542 4.792,51.75 -20.5,51.292c-118.583,-2.167 -199.486,-2.861 -242.708,-2.083c-8.028,0.139 -16.097,2.569 -24.208,7.291c-5.5,3.195 -11.292,8.959 -17.375,17.292c-12.473,17.139 -25.792,32.389 -39.959,45.75c-44.416,42 -94.375,96.583 -125.125,128.167c-98.083,100.75 -196.583,201.375 -291.25,304.333c-2.5,2.75 -3.764,7.292 -3.791,13.625c-0.584,219.778 -0.598,439.57 -0.042,659.375c-0,4.778 0.194,9.611 0.583,14.5c0.104,1.315 0.808,2.525 1.917,3.292c19.25,13 33.694,26.833 43.333,41.5c26.959,40.958 12.584,88.916 -26.166,114.708c-39,26 -98.792,6.708 -119.375,-36.25c-19.75,-41.25 2.833,-79.417 36.583,-103.25c1.647,-1.152 2.641,-3.031 2.667,-5.042c0.805,-234.75 0.333,-469.263 -1.417,-703.541c-0.042,-5 1.75,-12.417 4.25,-15.5c40.583,-50.5 72.389,-87.431 95.417,-110.792c83.166,-84.361 165.125,-169.861 245.875,-256.5c34.791,-37.333 73.583,-75.792 110.208,-113.792Zm-433.679,1300.33c0,-0 0,-0 0,-0c13.251,8.638 31.571,4.369 40.583,-9.456c0,0 0,0 0,0c9.012,-13.825 5.525,-32.309 -7.725,-40.947c-0,0 -0,0 -0,0c-13.251,-8.638 -31.571,-4.369 -40.583,9.456c-0,-0 -0,-0 -0,-0c-9.013,13.825 -5.525,32.309 7.725,40.947Z" style="fill:#fff;fill-rule:nonzero;"/><path d="M476.911,4066.47c0.09,-0.239 0.136,-0.493 0.136,-0.75c0,-1.165 -0.959,-2.125 -2.125,-2.125c-0.004,0 -0.007,0 -0.011,0c-130.028,0.223 -260.292,0.375 -390.792,0.459c-10.75,-0 -17.222,-4.236 -19.417,-12.709c-5.208,-20.25 0.167,-48.125 25.667,-48.208c305.194,-0.667 611.028,-0.708 917.5,-0.125c4.289,-0.008 7.956,3.246 8.5,7.542c1.958,15.208 7.792,54.208 -17.667,54.291c-158.361,0.612 -287.528,0.417 -387.5,-0.583c-18.25,-0.208 -46.166,-0.708 -59.25,12.625c-50.833,51.875 -102.375,107.917 -158.583,149.125c-7.389,5.417 -16.722,8.153 -28,8.208c-91.667,0.334 -183.333,0.153 -275,-0.541c-7.611,-0.056 -16,-3.417 -25.167,-10.084c-1.055,-0.777 -1.791,-1.791 -2.208,-3.041c-6.958,-21.042 1.708,-47.125 27.542,-47.25c86.305,-0.445 172.625,-0.445 258.958,-0c17,0.083 22.375,-4.917 34.125,-15.459c30.861,-27.777 60.792,-56.513 89.792,-86.208c1.694,-1.722 2.861,-3.444 3.5,-5.167Z" style="fill:#fff;fill-rule:nonzero;"/><path d="M1945.87,4048.97c0.528,260.612 -0.167,521.612 -2.083,783c-0.029,1.744 -0.821,3.391 -2.167,4.5c-12.333,10.125 -36.208,9.375 -50.167,5.459c-1.285,-0.365 -2.332,-1.304 -2.833,-2.542c-1.806,-4.639 -2.708,-9.43 -2.708,-14.375c0.222,-262.417 0.583,-524.847 1.083,-787.292c0.042,-15 -4.292,-25.708 13.708,-32.541c18.834,-7.167 41.584,-2.209 44.084,20.541c0.722,6.417 1.083,14.167 1.083,23.25Z" style="fill:#fff;fill-rule:nonzero;"/><path d="M2338.83,4063.85c-14.291,19.584 -48.708,8 -54.458,-12.75c-1.528,-5.444 -1.792,-12.472 -0.792,-21.083c2.25,-19.5 11.042,-27.375 30.709,-27.292c27.166,0.084 31.916,17.459 30.416,40.75c-0.583,9 -2.541,15.792 -5.875,20.375Z" style="fill:#fff;fill-rule:nonzero;"/><path d="M1662.99,4056.97c-3.708,7.25 -11.958,7.917 -19.208,7.875c-177.917,-1 -355.348,-1.111 -532.292,-0.333c-3.883,0.002 -7.366,-2.442 -8.667,-6.083c-6.139,-17.139 -5.208,-33.959 2.792,-50.459c0.524,-1.074 1.526,-1.845 2.708,-2.083c9.222,-1.805 18.514,-2.722 27.875,-2.75c169.806,-0.333 339.597,-0.083 509.375,0.75c12.417,0.083 19.056,5.847 19.917,17.292c1.361,17.889 0.528,29.819 -2.5,35.791Z" style="fill:#fff;fill-rule:nonzero;"/><path d="M1750.54,5201.43c-4.667,-2.792 -4.334,-8.5 -4.375,-13.75c-2.639,-478.972 -2.875,-867.222 -0.709,-1164.75c0.167,-24.084 59.125,-32.042 59.25,6.208c0.889,275.361 1,550.722 0.334,826.083c-0.278,112.778 0.111,226.306 1.166,340.584c0.024,2.391 -1.156,4.624 -3.125,5.916c-16.555,10.834 -34.069,10.737 -52.541,-0.291Z" style="fill:#fff;fill-rule:nonzero;"/><path d="M2083.83,4024.47c-0.125,146.709 -2.583,293.875 2.334,440.542c0.541,15.875 14.791,32.542 24.708,42.542c34.667,34.833 63.583,63.236 86.75,85.208c10.875,10.333 17.5,18.292 18.208,34.333c1.306,28.862 1.834,57.681 1.584,86.459c-0.75,88.028 -1.195,177.014 -1.334,266.958c-0.022,4.654 -3.845,8.477 -8.5,8.5l-42.916,0.208c-0.005,0 -0.01,0.001 -0.015,0.001c-4.206,0.014 -7.679,-3.416 -7.694,-7.599c0,-0.009 0,-0.018 0,-0.027l0.542,-334.833c-0.002,-3.938 -1.614,-7.705 -4.458,-10.417c-41.167,-39.222 -81.112,-80.208 -119.834,-122.958c-5.958,-6.583 -10.958,-19.458 -10.916,-29.75c0.416,-152.389 0.583,-304.764 0.5,-457.125c-0.042,-30.625 61.041,-33.458 61.041,-2.042Z" style="fill:#fff;fill-rule:nonzero;"/><path d="M2456.24,4005.89c7.805,2.5 11.708,7.486 11.708,14.958c-0.083,361.112 0.111,722.223 0.584,1083.33c-0,4.222 -0.778,8.208 -2.334,11.958c-0.528,1.278 -1.444,2.125 -2.75,2.542c-17.278,5.5 -34.097,4.444 -50.458,-3.167c-1.505,-0.714 -2.477,-2.237 -2.5,-3.917c-0.083,-4.222 -0.139,-10.513 -0.167,-18.875c-1.166,-354.861 -1.486,-709.722 -0.958,-1064.58c0.042,-26.167 27.625,-28.417 46.875,-22.25Z" style="fill:#fff;fill-rule:nonzero;"/><path d="M2607.49,4323.47c-1.361,56.75 -1.653,113.514 -0.875,170.292c1.583,115.139 1.917,221.042 1,317.708c-0.25,28.292 -22.083,38.834 -47.5,30.167c-7.972,-2.722 -11.986,-7.917 -12.042,-15.583c-2.278,-287.195 -2.764,-552.472 -1.458,-795.834c0.125,-22.833 18.167,-28.708 37.167,-27.083c20.5,1.75 23.291,19.375 23.291,37.667c0.056,90.583 0.222,181.153 0.5,271.708c0.028,3.667 0,7.32 -0.083,10.958Z" style="fill:#fff;fill-rule:nonzero;"/><path d="M4210.49,4051.26c-3.611,8.889 -9.611,13.361 -18,13.417c-116.389,0.639 -232.778,0.694 -349.167,0.166c-21.458,-0.125 -35.833,3.375 -37.708,-21.375c-1.375,-17.625 -0.333,-39.958 23.292,-40.083c76.722,-0.472 197.555,-0.5 362.5,-0.083c26.75,0.083 26.541,29.416 19.083,47.958Z" style="fill:#fff;fill-rule:nonzero;"/><path d="M2691.62,4008.01c15.208,-5.542 49.083,-7.25 49.125,17c0.139,94.111 -0.042,188.208 -0.542,282.292c-0.208,38.875 -58.083,39.125 -58.041,7.583c0.111,-96.972 0.111,-193.944 -0,-290.917c-0.042,-8.458 0.791,-12.791 9.458,-15.958Z" style="fill:#fff;fill-rule:nonzero;"/><path d="M407.536,4354.89c9.125,0 21.375,-4.833 27.875,-11.375c51.5,-52.139 103.263,-104.042 155.291,-155.708c24.75,-24.584 35.875,-33.292 69.084,-33.709c295.708,-3.625 591.5,-1.125 887.208,-0.875c11.583,0.028 19.917,1.959 25,5.792c16.25,12.292 11.333,40.292 -3.625,52.042c-4.278,3.389 -10.222,5.069 -17.833,5.041c-278.75,-0.944 -557.487,-0.472 -836.209,1.417c-19.055,0.139 -38.125,0.431 -57.208,0.875c-1.334,0.054 -2.634,0.488 -3.75,1.25c-12.25,8.75 -23.653,18.403 -34.208,28.958c-50.5,50.528 -101.556,100.5 -153.167,149.917c-17.875,17.125 -27.542,21 -53.833,20.792c-45.528,-0.389 -90.973,-1.111 -136.334,-2.167c-38.416,-0.917 -37.375,-43.208 -11.583,-60.917c1.114,-0.759 2.421,-1.165 3.75,-1.166c46.555,-0.111 93.069,-0.167 139.542,-0.167Z" style="fill:#fff;fill-rule:nonzero;"/><path d="M3232.95,4582.06l204.417,-0.125c0.35,0 0.698,-0.045 1.036,-0.135c2.143,-0.57 3.432,-2.82 2.856,-4.985c-0.089,-0.337 -0.221,-0.66 -0.392,-0.964c-8.458,-14.833 -19.583,-30.791 -22.5,-46.625c-9.125,-49.833 25.458,-99.541 67.417,-122.333c94.333,-51.25 199.291,45.708 165.958,144.042c-13.333,39.291 -44.625,72.541 -84.5,85.125c-11.945,3.75 -30.764,5.736 -56.458,5.958c-77.473,0.639 -183.237,0.986 -317.292,1.042c-22.917,-0 -25.833,-13.167 -24.917,-33.375c1.75,-38.695 2.861,-77.347 3.334,-115.959c0.291,-23.5 31.541,-45.291 51.666,-65c43.417,-42.416 84.5,-87.625 127,-131.041c30.542,-31.167 72.667,-79.042 111,-113.959c9.459,-8.625 20.042,-11.833 33.709,-11.833c228.777,0.333 457.541,0.208 686.291,-0.375c17.584,-0.042 28.459,0.917 31.375,21.417c2,14.278 -2.166,26.264 -12.5,35.958c-5.458,5.125 -14.166,4.375 -21.75,4.375c-251.666,0.361 -472.43,0.07 -662.291,-0.875c-13,-0.055 -23.778,4.417 -32.334,13.417c-29.375,30.875 -61,61.333 -89.083,91.458c-52.5,56.306 -106.153,111.472 -160.958,165.5c-1.778,1.778 -2.681,3.917 -2.709,6.417l-0.291,70.916c-0.001,0.014 -0.001,0.028 -0.001,0.042c0,1.052 0.865,1.917 1.917,1.917c-0,-0 0,-0 0,-0Zm288.439,-7.077c32.56,8.299 66.377,-12.43 74.913,-45.919c8.537,-33.49 -11.231,-67.878 -43.791,-76.177c-32.559,-8.299 -66.376,12.429 -74.913,45.919c-8.536,33.49 11.232,67.877 43.791,76.177Z" style="fill:#fff;fill-rule:nonzero;"/><path d="M775.744,4436.01c10.528,-8.167 20.458,-17.514 29.792,-28.042c34.138,-38.555 65.513,-69.375 94.125,-92.458c9.208,-7.458 24.625,-9.292 38.125,-9.292c182.111,0.084 364.222,0.112 546.333,0.084c10.083,-0 20.5,7.458 28.292,15.5c45.472,46.805 91.569,92.986 138.291,138.541c24.334,23.709 0.209,65.459 -33.208,52c-9.583,-3.861 -18.542,-10.541 -26.875,-20.041c-35.556,-40.445 -73.195,-78.847 -112.917,-115.209c-3.041,-2.833 -10.5,-6.791 -14.666,-6.75c-177.334,0.723 -353.764,0.764 -529.292,0.125c-4.707,-0.025 -9.259,1.765 -12.708,5c-46.5,43.917 -89.25,91.667 -137.125,134.75c-1.056,0.945 -1.75,2.098 -2.084,3.459c-8.083,33.916 -28.666,61.416 -60.708,76.375c-53.792,25.125 -114.083,6.041 -147.208,-43.834c-22.917,-34.555 -26.264,-69.847 -10.042,-105.875c14.917,-33.125 50.333,-64.541 85.708,-72.125c50.5,-10.833 101.375,19.334 121.459,66.584c0.051,0.119 0.111,0.234 0.177,0.346c0.864,1.454 2.755,1.95 4.19,1.098c0.119,-0.07 0.233,-0.149 0.341,-0.236Zm-88.772,105.176c29.696,-8.797 46.638,-41.337 37.53,-72.086c-9.108,-30.748 -41.039,-48.812 -70.736,-40.016c-29.697,8.797 -46.638,41.337 -37.53,72.086c9.108,30.749 41.039,48.812 70.736,40.016Z" style="fill:#fff;fill-rule:nonzero;"/><path d="M1455.99,4537.64c-3.532,-3.424 -8.248,-5.364 -13.167,-5.417c-125.778,-1.027 -251.25,-1.236 -376.416,-0.625c-7.612,0.028 -13.709,2.167 -18.292,6.417c-60.5,55.778 -119.167,113.403 -176,172.875c-20.139,21.083 -36.222,35.556 -48.25,43.417c-5.111,3.361 -13.5,5.028 -25.167,5c-77.444,-0.056 -154.875,-0.139 -232.291,-0.25c-41,-0.042 -39.875,-62.292 -1.917,-62.125c74.944,0.416 149.889,0.472 224.833,0.166c10.75,-0.041 27,-11.541 36.125,-20.625c68.167,-67.722 128.722,-129.291 181.667,-184.708c13.417,-14.042 24.25,-20.917 45,-21c139.167,-0.5 278.305,-0.583 417.417,-0.25c5.958,0 20.208,8.458 25.791,14.208c44.417,45.556 90.334,89.542 137.75,131.959c8.611,7.694 16.222,17.764 22.834,30.208c3.055,5.722 4.597,12.32 4.625,19.792c0.972,197.833 1.166,395.639 0.583,593.416c-0.042,20.834 -19.708,31.042 -38.458,27.834c-5.084,-0.861 -9.334,-3.056 -12.75,-6.584c-4.445,-4.555 -6.667,-9.097 -6.667,-13.625c-0.139,-174.055 -0.542,-348.111 -1.208,-522.166c-0.084,-19.667 -1.625,-40.792 -2.292,-61.25c-0.195,-6.584 -4.972,-14.278 -14.333,-23.084c-44.445,-41.777 -87.584,-82.972 -129.417,-123.583Z" style="fill:#fff;fill-rule:nonzero;"/><path d="M3032.12,4641.35l-0.25,-44.791c-0.044,-8.902 6.663,-16.51 15.5,-17.584l22.333,-2.708c0.692,-0.082 1.387,-0.123 2.084,-0.123c9.668,-0 17.624,7.955 17.625,17.623l0.041,45.583c0.012,9.113 -7.045,16.808 -16.125,17.584l-22.083,1.875c-0.499,0.042 -1,0.064 -1.5,0.064c-9.63,-0 -17.569,-7.893 -17.625,-17.523Z" style="fill:#fff;fill-rule:nonzero;"/><path d="M1201.79,4710.51l-2.959,16.708c-0.222,1.362 -0.68,2.625 -1.375,3.792c-3.75,6.667 0.042,10.458 6.334,13.083c37.416,15.75 70.958,47.459 77.5,88.375c10.166,64.042 -40.292,137.125 -106.834,142.375c-108.458,8.542 -175,-128.25 -93.791,-205.166c12.791,-12.167 30.958,-21.542 47.458,-30.417c3.267,-1.739 5.425,-5.03 5.708,-8.708c1.292,-17.5 7.875,-82.209 34.667,-82.584c49.333,-0.722 98.653,-1.097 147.958,-1.125c8.445,-0.027 16.639,3.931 24.584,11.875c53.722,53.806 107.444,107.612 161.166,161.417c13.542,13.542 14.834,39.125 14.792,55.917c-0.083,29.555 -0.042,59.111 0.125,88.666c0.055,5.973 -2.264,11.556 -6.958,16.75c-9.167,10.125 -30,9.584 -42.709,9.834c-27.166,0.528 -54.333,0.944 -81.5,1.25c-11.111,0.111 -19.208,-1.639 -24.291,-5.25c-17.584,-12.459 -12.292,-44.667 6.208,-53.292c5.25,-2.444 14.875,-3.694 28.875,-3.75c19.722,-0.055 39.305,0.042 58.75,0.292c0.014,0 0.028,0 0.042,0c1.325,0 2.416,-1.091 2.416,-2.417c0,0 0,0 0,0l0.125,-61.417c0,-3.704 -1.486,-7.263 -4.125,-9.875c-34.083,-34 -68.125,-66.583 -102.416,-102.625c-16.889,-17.777 -30.584,-31.388 -41.084,-40.833c-6.333,-5.708 -15.25,-5.833 -23.958,-6.083c-27.222,-0.778 -54.431,-0.597 -81.625,0.541c-1.521,0.054 -2.811,1.169 -3.083,2.667Zm21.75,144.333c-0,-32.892 -27.067,-59.958 -59.959,-59.958c-32.892,0 -59.958,27.066 -59.958,59.958c-0,32.893 27.066,59.959 59.958,59.959c32.892,-0 59.959,-27.066 59.959,-59.959Z" style="fill:#fff;fill-rule:nonzero;"/><path d="M1886.16,5475.6l0.708,-538.833c0.018,-3.75 2.482,-7.063 6.042,-8.125c15.138,-4.583 30.305,-4.75 45.5,-0.5c1.502,0.444 2.681,1.622 3.125,3.125c1.666,5.889 2.541,12.486 2.625,19.792c1.777,175.028 1.555,349.93 -0.667,524.708c-0.025,3.357 1.634,6.518 4.417,8.417c13.277,8.944 24.569,21.236 33.875,36.875c9.527,16 11.402,34.514 5.625,55.541c-15.625,57.125 -68.375,83.209 -119.917,53.417c-65.833,-38.042 -51.417,-122.667 15.125,-149.208c2.134,-0.827 3.547,-2.904 3.542,-5.209Zm37.65,-512.936c0.131,-1.961 -6.944,7.305 -10.913,7.041c0,0 3.917,-11.097 3.917,-11.097c-3.969,-0.263 -10.605,20.39 -10.736,22.352c0,-0 3.264,-19.257 3.264,-19.257c-0.13,1.962 10.535,-14.158 14.504,-13.895c-0,0 -7.507,17.951 -7.507,17.951c3.968,0.264 -19.749,-15.168 -19.618,-17.129c-0,-0 27.089,14.034 27.089,14.034Zm13.564,602.881c-0,0 -0,-0 -0,-0c2.603,-15.556 -8.593,-30.588 -24.803,-33.3c0,-0 0,-0 0,-0c-16.209,-2.713 -31.689,7.855 -34.292,23.411c-0,-0 -0,-0 -0,0c-2.603,15.555 8.593,30.588 24.802,33.3c0,0 0,0 0,0c16.21,2.713 31.69,-7.855 34.293,-23.411Z" style="fill:#fff;fill-rule:nonzero;"/><path d="M2220.91,5634.68c44.583,25.625 63.5,72.333 35.416,119.708c-39.25,66.167 -126.333,56.458 -150.708,-15.375c-14.417,-42.458 9.375,-85.125 48.125,-104.875c2.58,-1.304 4.211,-3.97 4.208,-6.875c-0.028,-176.833 -0.125,-353.625 -0.291,-530.375c-0,-5.111 2.125,-9.555 6.375,-13.333c8.208,-7.334 24.25,-6.917 34.541,-5.375c14.917,2.208 18.5,13.833 18.5,27.041c0.056,174.167 0.222,348.764 0.5,523.792c-0.004,2.337 1.274,4.509 3.334,5.667Zm-56.055,103.452c12.658,11.763 33.087,10.668 45.255,-2.426c12.167,-13.094 11.763,-33.549 -0.895,-45.312c-12.659,-11.763 -33.088,-10.667 -45.255,2.427c-12.168,13.094 -11.764,33.548 0.895,45.311Z" style="fill:#fff;fill-rule:nonzero;"/><path d="M2470.31,5240.52c-0.108,-12.371 -10.24,-22.328 -22.611,-22.22l-12.333,0.108c-12.372,0.108 -22.328,10.24 -22.22,22.611l0.782,89.58c0.108,12.372 10.239,22.328 22.611,22.22l12.333,-0.107c12.371,-0.108 22.328,-10.24 22.22,-22.612l-0.782,-89.58Z" style="fill:#fff;"/><path d="M1799.2,5297.35c1.861,6.973 2.847,13.07 2.959,18.292c0.694,36.806 1.18,73.611 1.458,110.417c0.167,23.666 -42.875,22.791 -52.875,6.375c-2.556,-4.195 -4.042,-11.542 -4.458,-22.042c-1.778,-46.583 -1.917,-82 -0.417,-106.25c0.833,-13.708 36.958,-12.708 47.958,-11.417c2.582,0.302 4.722,2.143 5.375,4.625Z" style="fill:#fff;fill-rule:nonzero;"/><path d="M372.515,5517.7c1.772,1.023 2.623,2.873 1.899,4.128c-0.725,1.254 -2.752,1.442 -4.524,0.419c-1.773,-1.024 -2.624,-2.873 -1.899,-4.128c0.724,-1.254 2.751,-1.442 4.524,-0.419Z" style="fill:#fff;"/></svg>